<svg width="93" height="126" viewBox="0 0 93 126" fill="none" xmlns="http://www.w3.org/2000/svg">
<path d="M36.6712 78.0256L12.4142 76.5108L18.4801 58.1259M18.4801 58.1259L12.4141 51.6823M18.4801 58.1259L25.1113 60.7796M18.4801 58.1259L10.1407 55.283" stroke="#FF1DC0" stroke-width="3.22266" stroke-linecap="round" stroke-linejoin="round"/>
<path d="M33.3023 61.105L21.5841 105.133C21.0773 107.038 22.8228 108.777 24.7259 108.264L68.7143 96.3983C70.6173 95.885 71.2517 93.5042 69.8554 92.1122L37.5853 59.9497C36.1897 58.5599 33.8097 59.2019 33.3023 61.105Z" fill="#FF1DC0"/>
<path d="M34.954 81.4117C34.3983 81.3006 34.173 80.6806 34.6649 80.3991C35.817 79.7397 37.7228 79.525 39.7651 79.9334C41.8074 80.3418 43.484 81.2729 44.294 82.3246C44.6397 82.7737 44.1934 83.2593 43.6376 83.1482L34.954 81.4117Z" fill="white"/>
<path d="M36.039 77.7045C36.9101 78.1079 37.8664 77.6726 38.1748 76.7324C38.4833 75.7922 38.0272 74.7031 37.156 74.2997C36.2849 73.8964 35.3286 74.3316 35.0201 75.2718C34.7117 76.212 35.1678 77.3012 36.039 77.7045Z" fill="white"/>
<path d="M42.385 78.1968C43.2561 78.6001 44.2124 78.1649 44.5209 77.2247C44.8294 76.2846 44.3733 75.1955 43.5022 74.7922C42.6311 74.3889 41.6748 74.8241 41.3663 75.7643C41.0578 76.7044 41.5139 77.7935 42.385 78.1968Z" fill="white"/>
<path d="M65.3978 94.8951L60.7442 120.621L75.7173 112.9L74.2016 120.621" stroke="#FF1DC0" stroke-width="3.22266" stroke-linecap="round" stroke-linejoin="round"/>
<path d="M35.9445 101.718L9.59949 101.718L22.4516 120.621L17.3217 120.621" stroke="#FF1DC0" stroke-width="3.22266" stroke-linecap="round" stroke-linejoin="round"/>
<path d="M52.9731 78.0256L81.0232 80.869L75.6897 63.9701M75.6897 63.9701L82.9195 59.6416M75.6897 63.9701L68.3262 65.1379M75.6897 63.9701L82.9195 63.9701" stroke="#FF1DC0" stroke-width="3.22266" stroke-linecap="round" stroke-linejoin="round"/>
<ellipse rx="43.8127" ry="27.2746" transform="matrix(-1 0 0 1 43.8135 41.8741)" fill="#30FFCD"/>
<rect width="87.6333" height="14.7428" transform="matrix(-1 0 0 1 87.6341 27.4626)" fill="#30FFCD"/>
<path d="M83.2786 15.4302C86.5238 19.6206 87.9933 24.2582 87.5474 28.9019C87.1016 33.5456 84.7552 38.0411 80.7314 41.9611C76.7076 45.8811 71.14 49.0952 64.5581 51.298C57.9761 53.5007 50.5985 54.6188 43.1267 54.5459C35.6548 54.4731 28.3371 53.2117 21.8692 50.8818C15.4012 48.5518 9.9981 45.2307 6.17343 41.2342C2.34875 37.2377 0.229675 32.6986 0.0176468 28.0485C-0.194382 23.3984 1.5077 18.7918 4.96205 14.6666L43.8127 27.2746L83.2786 15.4302Z" fill="#FF1DC0"/>
<path d="M83.2786 15.4302C79.7492 10.8727 74.2529 7.01613 67.4045 4.29175C60.556 1.56738 52.6252 0.0825717 44.4988 0.0033442C36.3725 -0.0758833 28.3709 1.25359 21.3887 3.84313C14.4065 6.43266 8.719 10.1802 4.96205 14.6667L43.8127 27.2746L83.2786 15.4302Z" fill="white"/>
</svg>
